<svg xmlns="http://www.w3.org/2000/svg" width="240" height="70" viewBox="0 20 240 70" fill="none" style="&#10;">
<path d="M3.32 84V56H15.44C17.9467 56 20.1067 56.4133 21.92 57.24C23.7333 58.04 25.1333 59.2 26.12 60.72C27.1067 62.24 27.6 64.0533 27.6 66.16C27.6 68.24 27.1067 70.04 26.12 71.56C25.1333 73.08 23.7333 74.2533 21.92 75.08C20.1067 75.88 17.9467 76.28 15.44 76.28H6.92L9.8 73.36V84H3.32ZM9.8 74.08L6.92 71H15.08C17.08 71 18.5733 70.5733 19.56 69.72C20.5467 68.8667 21.04 67.68 21.04 66.16C21.04 64.6133 20.5467 63.4133 19.56 62.56C18.5733 61.7067 17.08 61.28 15.08 61.28H6.92L9.8 58.2V74.08ZM27.0262 84V56H39.1462C41.6529 56 43.8129 56.4133 45.6263 57.24C47.4396 58.04 48.8396 59.2 49.8263 60.72C50.8129 62.24 51.3063 64.0533 51.3063 66.16C51.3063 68.24 50.8129 70.04 49.8263 71.56C48.8396 73.0533 47.4396 74.2 45.6263 75C43.8129 75.8 41.6529 76.2 39.1462 76.2H30.6262L33.5062 73.36V84H27.0262ZM44.8262 84L37.8262 73.84H44.7463L51.8262 84H44.8262ZM33.5062 74.08L30.6262 71.04H38.7862C40.7862 71.04 42.2796 70.6133 43.2663 69.76C44.2529 68.88 44.7463 67.68 44.7463 66.16C44.7463 64.6133 44.2529 63.4133 43.2663 62.56C42.2796 61.7067 40.7862 61.28 38.7862 61.28H30.6262L33.5062 58.2V74.08ZM64.8403 84.48C62.627 84.48 60.5736 84.12 58.6803 83.4C56.8136 82.68 55.187 81.6667 53.8003 80.36C52.4403 79.0533 51.3736 77.52 50.6003 75.76C49.8536 74 49.4803 72.08 49.4803 70C49.4803 67.92 49.8536 66 50.6003 64.24C51.3736 62.48 52.4536 60.9467 53.8403 59.64C55.227 58.3333 56.8536 57.32 58.7203 56.6C60.587 55.88 62.6136 55.52 64.8003 55.52C67.0136 55.52 69.0403 55.88 70.8803 56.6C72.747 57.32 74.3603 58.3333 75.7203 59.64C77.107 60.9467 78.187 62.48 78.9603 64.24C79.7336 65.9733 80.1203 67.8933 80.1203 70C80.1203 72.08 79.7336 74.0133 78.9603 75.8C78.187 77.56 77.107 79.0933 75.7203 80.4C74.3603 81.68 72.747 82.68 70.8803 83.4C69.0403 84.12 67.027 84.48 64.8403 84.48ZM64.8003 78.96C66.0536 78.96 67.2003 78.7467 68.2403 78.32C69.307 77.8933 70.2403 77.28 71.0403 76.48C71.8403 75.68 72.4536 74.7333 72.8803 73.64C73.3336 72.5467 73.5603 71.3333 73.5603 70C73.5603 68.6667 73.3336 67.4533 72.8803 66.36C72.4536 65.2667 71.8403 64.32 71.0403 63.52C70.267 62.72 69.347 62.1067 68.2803 61.68C67.2136 61.2533 66.0536 61.04 64.8003 61.04C63.547 61.04 62.387 61.2533 61.3203 61.68C60.2803 62.1067 59.3603 62.72 58.5603 63.52C57.7603 64.32 57.1336 65.2667 56.6803 66.36C56.2536 67.4533 56.0403 68.6667 56.0403 70C56.0403 71.3067 56.2536 72.52 56.6803 73.64C57.1336 74.7333 57.747 75.68 58.5203 76.48C59.3203 77.28 60.2536 77.8933 61.3203 78.32C62.387 78.7467 63.547 78.96 64.8003 78.96ZM84.3644 84.48C82.471 84.48 80.7244 84.1333 79.1244 83.44C77.551 82.72 76.2577 81.7067 75.2444 80.4L78.8444 76.08C79.6177 77.0933 80.431 77.8667 81.2844 78.4C82.1377 78.9067 83.0577 79.16 84.0444 79.16C86.6844 79.16 88.0044 77.6133 88.0044 74.52V61.2H78.1644V56H94.4444V74.16C94.4444 77.6267 93.591 80.2133 91.8844 81.92C90.1777 83.6267 87.671 84.48 84.3644 84.48ZM101.605 67.28H115.085V72.32H101.605V67.28ZM102.085 78.8H117.325V84H95.645V56H116.805V61.2H102.085V78.8ZM130.681 84.48C128.521 84.48 126.508 84.1333 124.641 83.44C122.801 82.72 121.201 81.7067 119.841 80.4C118.481 79.0933 117.414 77.56 116.641 75.8C115.894 74.04 115.521 72.1067 115.521 70C115.521 67.8933 115.894 65.96 116.641 64.2C117.414 62.44 118.481 60.9067 119.841 59.6C121.228 58.2933 122.841 57.2933 124.681 56.6C126.521 55.88 128.534 55.52 130.721 55.52C133.148 55.52 135.334 55.9467 137.281 56.8C139.254 57.6267 140.908 58.8533 142.241 60.48L138.081 64.32C137.121 63.2267 136.054 62.4133 134.881 61.88C133.708 61.32 132.428 61.04 131.041 61.04C129.734 61.04 128.534 61.2533 127.441 61.68C126.348 62.1067 125.401 62.72 124.601 63.52C123.801 64.32 123.174 65.2667 122.721 66.36C122.294 67.4533 122.081 68.6667 122.081 70C122.081 71.3333 122.294 72.5467 122.721 73.64C123.174 74.7333 123.801 75.68 124.601 76.48C125.401 77.28 126.348 77.8933 127.441 78.32C128.534 78.7467 129.734 78.96 131.041 78.96C132.428 78.96 133.708 78.6933 134.881 78.16C136.054 77.6 137.121 76.76 138.081 75.64L142.241 79.48C140.908 81.1067 139.254 82.3467 137.281 83.2C135.334 84.0533 133.134 84.48 130.681 84.48ZM146.943 84V61.28H137.983V56H162.383V61.28H153.423V84H146.943Z" fill="black"/>
<path d="M16.72 52.24C14.6133 52.24 12.6667 51.8933 10.88 51.2C9.09333 50.48 7.54667 49.48 6.24 48.2C4.93333 46.92 3.90667 45.4133 3.16 43.68C2.44 41.9467 2.08 40.0533 2.08 38C2.08 35.9467 2.44 34.0533 3.16 32.32C3.90667 30.5867 4.93333 29.08 6.24 27.8C7.57333 26.52 9.13333 25.5333 10.92 24.84C12.7067 24.12 14.6533 23.76 16.76 23.76C18.7867 23.76 20.6933 24.1067 22.48 24.8C24.2667 25.4667 25.7733 26.48 27 27.84L25.12 29.72C23.9733 28.5467 22.7067 27.7067 21.32 27.2C19.9333 26.6667 18.44 26.4 16.84 26.4C15.16 26.4 13.6 26.6933 12.16 27.28C10.72 27.84 9.46667 28.6533 8.4 29.72C7.33333 30.76 6.49333 31.9867 5.88 33.4C5.29333 34.7867 5 36.32 5 38C5 39.68 5.29333 41.2267 5.88 42.64C6.49333 44.0267 7.33333 45.2533 8.4 46.32C9.46667 47.36 10.72 48.1733 12.16 48.76C13.6 49.32 15.16 49.6 16.84 49.6C18.44 49.6 19.9333 49.3333 21.32 48.8C22.7067 48.2667 23.9733 47.4133 25.12 46.24L27 48.12C25.7733 49.48 24.2667 50.5067 22.48 51.2C20.6933 51.8933 18.7733 52.24 16.72 52.24ZM39.07 52.24C35.4967 52.24 32.6833 51.2133 30.63 49.16C28.5767 47.1067 27.55 44.0667 27.55 40.04V24H30.51V39.92C30.51 43.2267 31.2567 45.6667 32.75 47.24C34.2433 48.8133 36.35 49.6 39.07 49.6C41.8167 49.6 43.9367 48.8133 45.43 47.24C46.9233 45.6667 47.67 43.2267 47.67 39.92V24H50.55V40.04C50.55 44.0667 49.5233 47.1067 47.47 49.16C45.4433 51.2133 42.6433 52.24 39.07 52.24ZM58.8428 52V26.56H49.0028V24H71.6428V26.56H61.8028V52H58.8428ZM91.3316 24H94.2516V52H91.3316V24ZM73.8116 52H70.8516V24H73.8116V52ZM91.6116 39.08H73.4916V36.48H91.6116V39.08ZM100.511 36.52H115.311V39.04H100.511V36.52ZM100.831 49.44H117.671V52H97.8706V24H117.071V26.56H100.831V49.44ZM119.108 52V24H129.588C131.962 24 134.002 24.3867 135.708 25.16C137.415 25.9067 138.722 27 139.628 28.44C140.562 29.8533 141.028 31.5733 141.028 33.6C141.028 35.5733 140.562 37.28 139.628 38.72C138.722 40.1333 137.415 41.2267 135.708 42C134.002 42.7467 131.962 43.12 129.588 43.12H120.748L122.068 41.76V52H119.108ZM138.228 52L131.028 41.84H134.228L141.468 52H138.228ZM122.068 42L120.748 40.6H129.508C132.308 40.6 134.428 39.9867 135.868 38.76C137.335 37.5333 138.068 35.8133 138.068 33.6C138.068 31.36 137.335 29.6267 135.868 28.4C134.428 27.1733 132.308 26.56 129.508 26.56H120.748L122.068 25.16V42ZM145.135 36.52H159.935V39.04H145.135V36.52ZM145.455 49.44H162.295V52H142.495V24H161.695V26.56H145.455V49.44Z" fill="black"/>
<path d="M203.891 54C203.891 56.7012 201.701 58.8909 199 58.8909C196.299 58.8909 194.109 56.7012 194.109 54C194.109 51.2988 196.299 49.1091 199 49.1091C201.701 49.1091 203.891 51.2988 203.891 54Z" fill="black" stroke="black" stroke-width="2"/>
<path d="M212.182 46.3894C216.654 54.1358 219.1 62.0031 219.486 68.4244C219.876 74.9292 218.154 79.5364 214.846 81.4463C211.538 83.3562 206.687 82.5437 201.249 78.9532C195.881 75.4088 190.29 69.357 185.818 61.6106C181.346 53.8641 178.9 45.9969 178.514 39.5756C178.124 33.0708 179.846 28.4636 183.154 26.5537C186.462 24.6437 191.313 25.4562 196.751 29.0467C202.119 32.5912 207.709 38.643 212.182 46.3894Z" stroke="#0D0D0D" stroke-width="2.5"/>
<path d="M212.182 61.6101C207.709 69.3565 202.119 75.4084 196.751 78.9528C191.313 82.5433 186.462 83.3558 183.154 81.4459C179.846 79.536 178.124 74.9287 178.514 68.424C178.9 62.0027 181.345 54.1354 185.818 46.389C190.29 38.6426 195.881 32.5908 201.249 29.0463C206.687 25.4558 211.538 24.6433 214.846 26.5532C218.154 28.4632 219.876 33.0704 219.485 39.5752C219.1 45.9965 216.654 53.8637 212.182 61.6101Z" stroke="#0D0D0D" stroke-width="2.5"/>
<path d="M199 38.7787C190.055 38.7787 182.019 40.5942 176.265 43.471C170.437 46.3853 167.308 50.18 167.308 53.9999C167.308 57.8197 170.437 61.6144 176.265 64.5287C182.019 67.4056 190.055 69.221 199 69.221C207.945 69.221 215.981 67.4056 221.735 64.5287C227.563 61.6144 230.692 57.8197 230.692 53.9999C230.692 50.18 227.563 46.3853 221.735 43.471C215.981 40.5942 207.945 38.7787 199 38.7787Z" stroke="#0D0D0D" stroke-width="2.5"/>
</svg>